# xmcd CD database file
#
# Track frame offsets:
#	150
#	20025
#	41400
#	62935
#	84825
#	105310
#	120075
#	144385
#	170550
#	190360
#
# Disc length: 2830 seconds
#
# Revision: 2
# Processed by: cddbd v1.4PL0 Copyright (c) Steve Scherf et al.
# Submitted via: CDex 1.50
#
DISCID=7a0b0c0a
DTITLE=Kim Waters - The Best of Kim Waters
DYEAR=2001
DGENRE=Jazz
TTITLE0=It's Time For Love
TTITLE1=End Of The Road
TTITLE2=Just Be My Lady
TTITLE3=Sax Appeal
TTITLE4=Where Can She Be
TTITLE5=Soul Serenade
TTITLE6=One Last Cry
TTITLE7=Save The Best For Last
TTITLE8=Sweet And Saxy
TTITLE9=Back To Bassax
EXTD=YEAR: 2001
EXTT0=
EXTT1=
EXTT2=
EXTT3=
EXTT4=
EXTT5=
EXTT6=
EXTT7=
EXTT8=
EXTT9=
PLAYORDER=
